<svg xmlns="http://www.w3.org/2000/svg" viewBox="0 0 555.81 555.81"><defs><style>.cls-1{fill:#57adad;}.cls-2{fill:#fff;}</style></defs><g id="Layer_2" data-name="Layer 2"><g id="Camada_1" data-name="Camada 1"><path class="cls-1" d="M277.91,0h0C124.4,0,0,124.4,0,277.91H0c0,153.5,124.4,277.9,277.91,277.9h0c153.5,0,277.9-124.4,277.9-277.9h0C555.81,124.4,431.41,0,277.91,0Z"/><path class="cls-2" d="M136.77,342c-.19.38-.39.95-.58,1.33H137C137,343,136.77,342.39,136.77,342Z"/><path class="cls-2" d="M428.37,312.14c0,18.46-2.1,34.81-6.47,48.89a9.54,9.54,0,0,0,1-2.47c3.8-13.13,5.71-28.35,5.71-45.85V200.87h43l-.2-.19h-43Z"/><path class="cls-2" d="M471,162.82,439.4,115.46H386.9l-7-.19v.19h-89.4v194c0,11.22-2.47,19.4-7.61,24.73a20,20,0,0,1-5.52,4.18h-.19a1.44,1.44,0,0,0-.76.38c-.57.19-1.33.58-1.9.77l-1.33.38a4.31,4.31,0,0,0-.76.19A41.35,41.35,0,0,1,260,341.82c-10.28,0-17.69-2.47-22.83-8-5.33-5.52-7.8-13.7-7.8-24.73V107.85l-117.93,71v67.91a56.69,56.69,0,0,1,10.08-5.33,58.93,58.93,0,0,1,9.89-2.85V190.6l77.23-46.42V308.91c0,16.55,4.56,29.67,13.5,39.19,8.94,9.7,21.5,14.45,37.28,14.45a59.74,59.74,0,0,0,19-2.85h3.23v-1.14c1-.38,1.9-.95,2.85-1.33.57-.38,1.14-.58,1.71-1a42.5,42.5,0,0,0,10.47-8c8.94-9.33,13.5-22.45,13.5-39.38V135.81h72.47l1.15-1.71,1.52-2.28h30.81l12.94.76,2.47.19,1.33,2.09,2.47,3.62,40.33,59.72,5.33,7.8H433.5V312.71c0,18.08-1.9,33.48-5.89,47.37v.38a105.94,105.94,0,0,1-21.88,33.86c-11,11.41-22.83,19.59-35,24.35-1.9.76-4,1.33-6.09,2.09l-.38.19A145,145,0,0,1,335,427c-.76,0-1.71.19-2.47.19h-.38c-2.67.2-5.33.2-8,.2a101,101,0,0,1-11-.58l-7-.76c-9.13.57-17.88.95-26.44.95-34.62,0-58.4-5.13-72.28-9.51-15-4.75-22.07-9.51-22.07-9.51l-.19-.19-.19-.19a93,93,0,0,1-27.77-23.39H131.63a124.64,124.64,0,0,0,9.7,13.31c10.08,12.18,21.49,21.88,33.67,28.53,5.71,3.81,15.6,8.18,25.87,11.42,22.25,7,48.69,10.65,78.75,10.65,13.5,0,27.58-.76,42.42-2.09h.57c.19,0,3.42-.38,8.18-.95l2.66-.39,1.14-.19,1.14-.19c16.36-2.28,28.15-4.75,34.81-7.6,1.71-.57,3.23-1.15,5.33-1.91l.57-.19c14.45-5.7,28.15-15.21,40.89-28.34a117.83,117.83,0,0,0,20-27.39l.38-.76.38-.76c7.42-18.07,11-39.95,11-64.87V221.79h61.82Z"/><path class="cls-2" d="M324.32,422.28c2.28,0,4.75,0,7.61-.19.95,0,1.71-.19,2.47-.19a137.65,137.65,0,0,0,28.34-5.9,57.28,57.28,0,0,0,6.09-2.09c11.41-4.38,22.63-12.17,33.1-23a101.83,101.83,0,0,0,20.92-32.33c3.8-13.13,5.71-28.35,5.71-45.85V200.87h43l-40.33-59.73-2.47-3.61L416,137H387.85l-35,52.3-5.14,7.42-2.28,3.43h43.18v114.7c.19,14.07.19,25.11-4.56,38.8a105,105,0,0,1-24.16,40.33c-10.84,11.41-22.64,19.4-34.62,24.15a98.45,98.45,0,0,1-11.41,3.81S317.85,422.28,324.32,422.28ZM395.84,358c5.33-16,5.33-28.73,5.33-43.37v-128H369.78l24.92-36.33H416l6.09.19L447,187.36H415.62v125c0,16-1.52,29.49-4.94,41.47a91.19,91.19,0,0,1-17.88,27.39,97.3,97.3,0,0,1-17.31,14.27A117.51,117.51,0,0,0,395.84,358Z"/><path class="cls-2" d="M173.1,351.52H120c8.75-7.61,12.36-17.12,11.79-28.34h24.54V302.63H129.54c-.19-.76-.38-1.52-.57-2.09-1.34-5.71-2.1-11.41-1.14-17.31,1-5.51,3.61-9.89,9.13-12.17a23.9,23.9,0,0,1,8.94-1.52H147c5.13.19,10.08.95,14.64,3.23a1.14,1.14,0,0,0,.76.19c1.72-7.42,3.24-15,4.76-22.45-4.18-2.28-8.56-3.23-13.13-4-2.09-.38-4.18-.57-6.27-.76a41.38,41.38,0,0,0-7,.38c-.38,0-.76.19-1.14.19a41.88,41.88,0,0,0-14.46,3c-14.26,5.71-22.82,16.17-24.92,31.58-.95,6.85-.19,13.69,1,20.54,0,.38.2.95.2,1.52H85.6v20.36h16.17c3,0,3.23,0,3.42,3,.38,5.9-.19,11.6-3,16.74A38.78,38.78,0,0,1,84.27,359.7a1.33,1.33,0,0,0-1.15,1.52v14.84h90Z"/></g></g></svg>